<svg xmlns="http://www.w3.org/2000/svg" viewBox="0 0 1600 900" preserveAspectRatio="xMidYMid slice">
  <defs>
    <linearGradient id="wb" x1="0" y1="0" x2="1" y2="1"><stop offset="0%" stop-color="#0A1228"/><stop offset="100%" stop-color="#1F2F6E"/></linearGradient>
    <pattern id="wg" width="64" height="64" patternUnits="userSpaceOnUse"><path d="M 64 0 L 0 0 0 64" fill="none" stroke="#FBF8F3" stroke-width="0.5" stroke-opacity="0.07"/></pattern>
  </defs>
  <rect width="1600" height="900" fill="url(#wb)"/>
  <rect width="1600" height="900" fill="url(#wg)"/>
  <g transform="translate(120,160)">
    <text x="0" y="0" font-family="ui-monospace, monospace" font-size="22" letter-spacing="8" fill="#9EDBE5" opacity="0.9">FIG. XII — VEIVISER</text>
    <text x="0" y="170" font-family="Georgia, serif" font-style="italic" font-weight="400" font-size="110" fill="#FBF8F3">Et nytt</text>
    <text x="0" y="300" font-family="Georgia, serif" font-style="italic" font-weight="400" font-size="110" fill="#FBF8F3">utleieobjekt</text>
    <line x1="0" y1="360" x2="280" y2="360" stroke="#9EDBE5" stroke-width="1"/>
    <text x="0" y="410" font-family="Public Sans, system-ui, sans-serif" font-size="28" fill="#FBF8F3" opacity="0.85">Veiviser i seks steg — publisert på under tjue minutter</text>
  </g>
  <g transform="translate(1100,330)" opacity="0.95">
    <g><circle cx="0" cy="0" r="22" fill="#9EDBE5"/><text x="0" y="6" text-anchor="middle" font-family="ui-monospace, monospace" font-size="14" fill="#0A1228" font-weight="700">1</text></g>
    <line x1="22" y1="0" x2="78" y2="0" stroke="#9EDBE5" stroke-width="1"/>
    <g transform="translate(100,0)"><circle cx="0" cy="0" r="22" fill="none" stroke="#9EDBE5" stroke-width="1.5"/><text x="0" y="6" text-anchor="middle" font-family="ui-monospace, monospace" font-size="14" fill="#9EDBE5">2</text></g>
    <line x1="122" y1="0" x2="178" y2="0" stroke="#9EDBE5" stroke-width="1" opacity="0.4"/>
    <g transform="translate(200,0)"><circle cx="0" cy="0" r="22" fill="none" stroke="#9EDBE5" stroke-width="1.5" opacity="0.4"/><text x="0" y="6" text-anchor="middle" font-family="ui-monospace, monospace" font-size="14" fill="#9EDBE5" opacity="0.4">3</text></g>
  </g>
  <text x="120" y="820" font-family="ui-monospace, monospace" font-size="18" letter-spacing="6" fill="#FBF8F3" opacity="0.5">DIGILIST · BLOGG</text>
</svg>
